<svg width="100" height="100" viewBox="0 0 100 100" fill="none" xmlns="http://www.w3.org/2000/svg">
  <defs>
    <linearGradient id="grad1" x1="0%" y1="0%" x2="100%" y2="100%">
      <stop offset="0%" style="stop-color:#f97316;stop-opacity:1" />
      <stop offset="100%" style="stop-color:#ea580c;stop-opacity:1" />
    </linearGradient>
    <filter id="shadow" x="-20%" y="-20%" width="140%" height="140%">
      <feGaussianBlur in="SourceAlpha" stdDeviation="3" />
      <feOffset dx="0" dy="2" result="offsetblur" />
      <feComponentTransfer>
        <feFuncA type="linear" slope="0.3" />
      </feComponentTransfer>
      <feMerge>
        <feMergeNode />
        <feMergeNode in="SourceGraphic" />
      </feMerge>
    </filter>
  </defs>
  <rect width="100" height="100" rx="24" fill="url(#grad1)" />
  <g filter="url(#shadow)">
    <path d="M30 40C30 34.4772 34.4772 30 40 30H60C65.5228 30 70 34.4772 70 40V60C70 65.5228 65.5228 70 60 70H40C34.4772 70 30 65.5228 30 60V40Z" fill="white" fill-opacity="0.15" />
    <path d="M50 35C41.7157 35 35 41.7157 35 50C35 58.2843 41.7157 65 50 65C58.2843 65 65 58.2843 65 50C65 41.7157 58.2843 35 50 35ZM50 60C44.4772 60 40 55.5228 40 50C40 44.4772 44.4772 40 50 40C55.5228 40 60 44.4772 60 50C60 55.5228 55.5228 60 50 60Z" fill="white" />
    <circle cx="45" cy="48" r="3" fill="white" />
    <circle cx="55" cy="48" r="3" fill="white" />
    <path d="M45 55C45 55 46.5 58 50 58C53.5 58 55 55 55 55" stroke="white" stroke-width="2" stroke-linecap="round" />
    <path d="M70 45V55M30 45V55M50 25V30M50 70V75" stroke="white" stroke-width="3" stroke-linecap="round" stroke-opacity="0.5" />
  </g>
</svg>
